<svg width="27" height="27" viewBox="0 0 27 27" fill="none" xmlns="http://www.w3.org/2000/svg">
<path d="M23.2284 13.9473L15.6347 21.541C15.5147 21.6528 15.3561 21.7137 15.1921 21.7108C15.0282 21.7079 14.8718 21.6415 14.7558 21.5255C14.6399 21.4096 14.5735 21.2532 14.5706 21.0892C14.5677 20.9253 14.6285 20.7666 14.7403 20.6466L21.253 14.1329H4.21875C4.05092 14.1329 3.88996 14.0662 3.77128 13.9476C3.65261 13.8289 3.58594 13.6679 3.58594 13.5001C3.58594 13.3323 3.65261 13.1713 3.77128 13.0526C3.88996 12.9339 4.05092 12.8673 4.21875 12.8673H21.253L14.7403 6.35352C14.6285 6.23356 14.5677 6.0749 14.5706 5.91096C14.5735 5.74701 14.6399 5.5906 14.7558 5.47465C14.8718 5.35871 15.0282 5.2923 15.1921 5.28941C15.3561 5.28651 15.5147 5.34737 15.6347 5.45915L23.2284 13.0529C23.3469 13.1715 23.4135 13.3324 23.4135 13.5001C23.4135 13.6678 23.3469 13.8286 23.2284 13.9473Z" fill="#425EEC"/>
</svg>
