<svg width="80" height="80" viewBox="0 0 80 80" fill="none" xmlns="http://www.w3.org/2000/svg">
<path d="M53.3333 10.7667C55.7 8.03341 58.7 6.66675 62.3333 6.66675C65.3666 6.66675 67.9 7.76675 70 10.0001C72.1 12.2334 73.2 14.7667 73.3333 17.6667C73.3333 20.0001 72.2333 22.7001 70 25.8667C67.7666 29.0334 65.6 31.6667 63.4333 33.8334C61.2666 35.9667 57.9 39.1334 53.3333 43.3334C48.7 39.1334 45.3 35.9667 43.1333 33.8334C40.9666 31.7001 38.7666 29.0334 36.5666 25.8667C34.3666 22.7001 33.3333 20.0001 33.3333 17.6667C33.3333 14.6334 34.4 12.1001 36.5666 10.0001C38.7333 7.90008 41.3333 6.80008 44.3666 6.66675C47.9333 6.66675 50.9 8.03341 53.3333 10.7667ZM73.3333 63.3334V66.6668L46.6666 75.0001L23.3333 68.5334V73.3334H3.33331V36.6667H29.9L50.4333 44.3334C52.263 45.0236 53.8393 46.2543 54.9527 47.8619C56.0661 49.4695 56.6639 51.3779 56.6666 53.3334H63.3333C68.8666 53.3334 73.3333 57.8001 73.3333 63.3334ZM16.6666 66.6668V43.3334H9.99998V66.6668H16.6666ZM66.3333 61.9001C65.8 60.8001 64.6333 60.0001 63.3333 60.0001H45.5C43.7 60.0001 41.9333 59.7334 40.2333 59.1668L32.3 56.5334L34.4 50.2001L42.3333 52.8334C43.3333 53.1668 50 53.3334 50 53.3334C50 52.1001 49.2333 51.0001 48.1 50.5667L28.7 43.3334H23.3333V61.6668L46.5666 68.0334L66.3333 61.9001Z" fill="#9DA9BD"/>
</svg>
