<svg width="80" height="80" viewBox="0 0 80 80" fill="none" xmlns="http://www.w3.org/2000/svg">
<path d="M37.425 68.1063C37.2898 68.6472 36.9777 69.1273 36.5384 69.4705C36.099 69.8136 35.5575 70 35 70.0001C34.7894 70.0011 34.5794 69.9759 34.375 69.9251L24.375 67.4251C24.0966 67.3552 23.8323 67.2378 23.5938 67.0782L16.0938 62.0782C15.5422 61.7102 15.1594 61.1382 15.0296 60.488C14.8998 59.8378 15.0336 59.1626 15.4016 58.611C15.7696 58.0595 16.3416 57.6767 16.9918 57.5469C17.642 57.4171 18.3172 57.5509 18.8688 57.9188L26.0063 62.6782L35.5875 65.0751C35.9076 65.1527 36.2093 65.2928 36.4751 65.4874C36.7409 65.6819 36.9656 65.9271 37.1364 66.2088C37.3071 66.4905 37.4205 66.8031 37.4701 67.1288C37.5196 67.4544 37.5043 67.7866 37.425 68.1063ZM78.8906 37.9626C78.6855 38.5857 78.359 39.1619 77.9299 39.6581C77.5008 40.1542 76.9776 40.5604 76.3906 40.8532L68.9906 44.5532L64.2781 49.2689L51.7781 61.7689C51.4727 62.074 51.0933 62.2949 50.6771 62.4099C50.2609 62.5249 49.822 62.5301 49.4031 62.4251L29.4031 57.4251C29.099 57.3487 28.8118 57.2163 28.5563 57.0345L11.2063 44.647L3.61876 40.8532C2.43294 40.2604 1.53108 39.221 1.11149 37.9634C0.691905 36.7058 0.78894 35.333 1.38126 34.147L9.14689 18.6189C9.73968 17.433 10.7792 16.5312 12.0367 16.1116C13.2943 15.692 14.6671 15.789 15.8531 16.3814L22.7469 19.8189L39.3094 15.0876C39.7587 14.9591 40.2351 14.9591 40.6844 15.0876L57.2469 19.8189L64.1406 16.3814C65.3267 15.789 66.6994 15.692 67.957 16.1116C69.2146 16.5312 70.2541 17.433 70.8469 18.6189L78.6125 34.147C78.9087 34.733 79.0858 35.372 79.1335 36.0269C79.1813 36.6819 79.0987 37.3398 78.8906 37.9626ZM58.75 47.7064L50.0906 40.772C43.9844 45.772 36.2313 46.4314 29.8063 42.3345C29.1743 41.9324 28.6406 41.3936 28.2449 40.7576C27.8491 40.1217 27.6012 39.4049 27.5196 38.6604C27.438 37.9158 27.5248 37.1624 27.7734 36.4558C28.0221 35.7493 28.4263 35.1076 28.9563 34.5782C28.9638 34.5691 28.9722 34.5608 28.9813 34.5532L43 20.9564L40 20.1001L24.2438 24.6032L15.6906 41.7064L31.0656 52.6907L49.2344 57.2313L58.75 47.7064ZM64.45 42.0064L55.9563 25.0001H46.0125L32.5 38.1251C36.4563 40.6532 42.6594 41.3501 48.225 35.7407C48.6597 35.3026 49.2411 35.0407 49.8572 35.0055C50.4734 34.9703 51.0808 35.1643 51.5625 35.5501L62.3156 44.1657L64.45 42.0064Z" fill="white"/>
</svg>
