<svg width="19" height="19" viewBox="0 0 19 19" fill="none" xmlns="http://www.w3.org/2000/svg">
<g clip-path="url(#clip0_9_24)">
<mask id="mask0_9_24" style="mask-type:luminance" maskUnits="userSpaceOnUse" x="0" y="0" width="19" height="19">
<path d="M9.49999 17.4167C10.5398 17.4181 11.5697 17.2139 12.5303 16.816C13.491 16.418 14.3636 15.8342 15.0979 15.0979C15.8341 14.3636 16.418 13.4911 16.8159 12.5304C17.2138 11.5697 17.418 10.5399 17.4167 9.50005C17.418 8.46022 17.2138 7.43039 16.8159 6.46972C16.4179 5.50905 15.8341 4.63648 15.0979 3.90217C14.3636 3.16593 13.491 2.58207 12.5303 2.18413C11.5697 1.78619 10.5398 1.58203 9.49999 1.58338C8.46016 1.58206 7.43032 1.78623 6.46966 2.18416C5.50899 2.5821 4.63642 3.16595 3.90211 3.90217C3.16589 4.63648 2.58204 5.50905 2.1841 6.46972C1.78617 7.43039 1.58199 8.46022 1.58332 9.50005C1.58197 10.5399 1.78613 11.5697 2.18407 12.5304C2.58201 13.4911 3.16587 14.3636 3.90211 15.0979C4.63642 15.8341 5.50899 16.418 6.46966 16.8159C7.43032 17.2139 8.46016 17.418 9.49999 17.4167Z" fill="white" stroke="white" stroke-width="2" stroke-linejoin="round"/>
<path d="M6.33331 9.5L8.70831 11.875L13.4583 7.125" stroke="black" stroke-width="2" stroke-linecap="round" stroke-linejoin="round"/>
</mask>
<g mask="url(#mask0_9_24)">
<path d="M0 0H19V19H0V0Z" fill="white"/>
</g>
</g>
<defs>
<clipPath id="clip0_9_24">
<rect width="19" height="19" fill="white"/>
</clipPath>
</defs>
</svg>
