<?xml version="1.0" encoding="utf-8"?><svg xmlns="http://www.w3.org/2000/svg" xmlns:xlink="http://www.w3.org/1999/xlink"><symbol viewBox="0 0 27 27" id="arrowright" xmlns="http://www.w3.org/2000/svg"><path d="M23.228 13.947l-7.593 7.594a.633.633 0 01-.895-.894l6.513-6.514H4.219a.633.633 0 010-1.266h17.034L14.74 6.354a.633.633 0 01.895-.895l7.593 7.594a.633.633 0 010 .894z"/></symbol><symbol viewBox="0 0 17 17" id="call" xmlns="http://www.w3.org/2000/svg"><g clip-path="url(#bclip0_32_22)"><path fill-rule="evenodd" clip-rule="evenodd" d="M2.003.543a1.854 1.854 0 012.773.173l1.907 2.45c.35.45.473 1.035.335 1.588L6.437 7.08a.72.72 0 00.189.684l2.61 2.61a.72.72 0 00.685.19l2.325-.582a1.854 1.854 0 011.588.335l2.45 1.906c.88.685.962 1.987.173 2.774l-1.099 1.099c-.786.786-1.96 1.131-3.056.746a19.8 19.8 0 01-7.448-4.697A19.799 19.799 0 01.157 4.698c-.384-1.094-.04-2.27.747-3.056l1.099-1.1z"/></g><defs><clipPath id="bclip0_32_22"><path d="M0 0h17v17H0z"/></clipPath></defs></symbol><symbol viewBox="0 0 25 25" id="close" xmlns="http://www.w3.org/2000/svg"><path d="M23.649 0L12.5 11.149 1.351 0 0 1.351 11.149 12.5 0 23.649 1.351 25 12.5 13.851 23.649 25 25 23.649 13.851 12.5 25 1.351 23.649 0z"/></symbol><symbol viewBox="0 0 80 80" id="handheart" xmlns="http://www.w3.org/2000/svg"><path d="M53.333 10.767c2.367-2.734 5.367-4.1 9-4.1 3.034 0 5.567 1.1 7.667 3.333 2.1 2.233 3.2 4.767 3.333 7.667 0 2.333-1.1 5.033-3.333 8.2-2.233 3.166-4.4 5.8-6.567 7.966-2.166 2.134-5.533 5.3-10.1 9.5-4.633-4.2-8.033-7.366-10.2-9.5-2.166-2.133-4.366-4.8-6.566-7.966-2.2-3.167-3.234-5.867-3.234-8.2 0-3.034 1.067-5.567 3.234-7.667 2.166-2.1 4.766-3.2 7.8-3.333 3.566 0 6.533 1.366 8.966 4.1zm20 52.566v3.334L46.667 75l-23.334-6.467v4.8h-20V36.667H29.9l20.533 7.666a9.633 9.633 0 016.234 9h6.666c5.534 0 10 4.467 10 10zm-56.666 3.334V43.333H10v23.334h6.667zM66.333 61.9c-.533-1.1-1.7-1.9-3-1.9H45.5c-1.8 0-3.567-.267-5.267-.833L32.3 56.533l2.1-6.333 7.933 2.633c1 .334 7.667.5 7.667.5a2.967 2.967 0 00-1.9-2.766l-19.4-7.234h-5.367v18.334l23.234 6.366L66.333 61.9z"/></symbol><symbol viewBox="0 0 80 80" id="handshake" xmlns="http://www.w3.org/2000/svg"><path d="M37.425 68.106A2.5 2.5 0 0135 70c-.21.001-.42-.024-.625-.075l-10-2.5a2.5 2.5 0 01-.781-.347l-7.5-5a2.5 2.5 0 112.775-4.16l7.137 4.76 9.581 2.397a2.5 2.5 0 011.838 3.031zm41.466-30.143a4.965 4.965 0 01-2.5 2.89l-7.4 3.7-4.713 4.716-12.5 12.5a2.5 2.5 0 01-2.375.656l-20-5a2.52 2.52 0 01-.847-.39l-17.35-12.388-7.587-3.794a5 5 0 01-2.238-6.706l7.766-15.528a5 5 0 016.706-2.238l6.894 3.438 16.562-4.731a2.5 2.5 0 011.375 0l16.563 4.73 6.894-3.437a5 5 0 016.706 2.238l7.766 15.528a4.967 4.967 0 01.278 3.816zM58.75 47.706l-8.66-6.934c-6.106 5-13.859 5.66-20.284 1.563a5 5 0 01-.825-7.782L43 20.956l-3-.856-15.756 4.503-8.553 17.103 15.375 10.985 18.168 4.54 9.516-9.525zm5.7-5.7L55.956 25h-9.944L32.5 38.125c3.956 2.528 10.16 3.225 15.725-2.384a2.5 2.5 0 013.337-.19l10.754 8.615 2.134-2.16z"/></symbol><symbol viewBox="0 0 80 80" id="house" xmlns="http://www.w3.org/2000/svg"><path d="M40 10L6.667 40h10v26.667h46.666V40h10M30 60h-6.667V40H30m13.333 20h-6.666V33.333h6.666M56.667 60H50V46.667h6.667"/></symbol><symbol viewBox="0 0 21 21" id="mail" xmlns="http://www.w3.org/2000/svg"><path d="M3.5 17.5c-.481 0-.893-.172-1.236-.515a1.682 1.682 0 01-.514-1.235V5.25c0-.481.171-.893.514-1.236A1.682 1.682 0 013.5 3.5h14c.481 0 .893.171 1.236.514.343.343.515.755.514 1.236v10.5c0 .481-.172.893-.515 1.236a1.682 1.682 0 01-1.235.514h-14zm7-6.125L17.5 7V5.25l-7 4.375-7-4.375V7l7 4.375z"/></symbol><symbol viewBox="0 0 21 21" id="mapmark" xmlns="http://www.w3.org/2000/svg"><path d="M10.5 10.063a2.188 2.188 0 110-4.376 2.188 2.188 0 010 4.375zm0-8.313a6.125 6.125 0 00-6.125 6.125c0 4.594 6.125 11.375 6.125 11.375s6.125-6.781 6.125-11.375A6.125 6.125 0 0010.5 1.75z"/></symbol><symbol viewBox="0 0 19 19" id="ok" xmlns="http://www.w3.org/2000/svg"><g clip-path="url(#iclip0_9_24)"><mask id="ia" maskUnits="userSpaceOnUse" x="0" y="0" width="19" height="19"><path d="M9.5 17.417a7.891 7.891 0 005.598-2.32A7.891 7.891 0 0017.417 9.5a7.893 7.893 0 00-2.32-5.598A7.892 7.892 0 009.5 1.583a7.892 7.892 0 00-5.598 2.32A7.892 7.892 0 001.583 9.5a7.892 7.892 0 002.32 5.598A7.892 7.892 0 009.5 17.417z" stroke-width="2" stroke-linejoin="round"/><path d="M6.333 9.5l2.375 2.375 4.75-4.75" stroke-width="2" stroke-linecap="round" stroke-linejoin="round"/></mask><g mask="url(#ia)"><path d="M0 0h19v19H0V0z"/></g></g><defs><clipPath id="iclip0_9_24"><path d="M0 0h19v19H0z"/></clipPath></defs></symbol><symbol viewBox="0 0 80 80" id="person" xmlns="http://www.w3.org/2000/svg"><path d="M40 40c-3.667 0-6.806-1.306-9.417-3.917-2.61-2.61-3.916-5.75-3.916-9.416 0-3.667 1.305-6.806 3.916-9.417 2.611-2.611 5.75-3.917 9.417-3.917s6.806 1.306 9.417 3.917c2.61 2.611 3.916 5.75 3.916 9.417 0 3.666-1.305 6.805-3.916 9.416C46.806 38.694 43.667 40 40 40zM13.333 66.667v-9.334c0-1.889.487-3.625 1.46-5.21.974-1.584 2.265-2.792 3.874-3.623 3.444-1.722 6.944-3.014 10.5-3.877A45.679 45.679 0 0140 43.333c3.667 0 7.278.431 10.833 1.294 3.556.862 7.056 2.153 10.5 3.873 1.611.833 2.904 2.042 3.877 3.627a9.739 9.739 0 011.457 5.206v9.334H13.333z"/></symbol><symbol viewBox="0 0 28 28" id="wa" xmlns="http://www.w3.org/2000/svg"><path fill-rule="evenodd" clip-rule="evenodd" d="M14 0C6.262 0 0 6.258 0 14c0 2.92.89 5.62 2.472 7.94a.7.7 0 01.087.602L1.137 27.3l4.66-1.608a.7.7 0 01.602.077 13.917 13.917 0 007.6 2.231C21.743 28 28 21.742 28 14S21.742 0 14 0zM8.27 6.103l2.548 4.211-1.06 1.05a.7.7 0 00-.11.842c1.62 2.804 3.537 4.985 6.223 6.17a.7.7 0 00.777-.143l1.127-1.126 4.112 2.57c-.455 1.025-1.049 1.635-1.728 1.99-.787.412-1.747.49-2.844.263-2.193-.455-4.841-2.178-7-4.386-2.158-2.208-3.829-4.893-4.254-7.077-.213-1.092-.12-2.033.284-2.778.347-.642.937-1.192 1.925-1.586z"/></symbol></svg>