<svg width="17" height="17" viewBox="0 0 17 17" fill="none" xmlns="http://www.w3.org/2000/svg">
<path id="Subtract" fill-rule="evenodd" clip-rule="evenodd" d="M11.5303 15.816C10.5697 16.2139 9.53981 16.4181 8.49999 16.4167C7.46016 16.418 6.43032 16.2139 5.46966 15.8159C4.50899 15.418 3.63642 14.8341 2.90211 14.0979C2.16587 13.3636 1.58201 12.4911 1.18407 11.5304C0.786134 10.5697 0.581972 9.53988 0.58332 8.50005C0.581994 7.46022 0.786165 6.43039 1.1841 5.46972C1.58204 4.50905 2.16589 3.63648 2.90211 2.90217C3.63642 2.16595 4.50899 1.5821 5.46966 1.18416C6.43032 0.786226 7.46016 0.582055 8.49999 0.583381C9.53981 0.582033 10.5697 0.786195 11.5303 1.18413C12.491 1.58207 13.3636 2.16593 14.0979 2.90217C14.8341 3.63648 15.4179 4.50905 15.8159 5.46972C16.2138 6.43039 16.418 7.46022 16.4167 8.50005C16.418 9.53988 16.2138 10.5697 15.8159 11.5304C15.418 12.4911 14.8341 13.3636 14.0979 14.0979C13.3636 14.8342 12.491 15.418 11.5303 15.816ZM13.1654 6.83211C13.5559 6.44158 13.5559 5.80842 13.1654 5.41789C12.7749 5.02737 12.1417 5.02737 11.7512 5.41789L7.70831 9.46079L6.04042 7.79289C5.6499 7.40237 5.01673 7.40237 4.62621 7.79289C4.23568 8.18342 4.23568 8.81658 4.62621 9.20711L7.00121 11.5821C7.39173 11.9726 8.0249 11.9726 8.41542 11.5821L13.1654 6.83211Z" fill="white"/>
</svg>
