<svg width="80" height="80" viewBox="0 0 80 80" fill="none" xmlns="http://www.w3.org/2000/svg">
<path d="M40 39.9999C36.3333 39.9999 33.1944 38.6944 30.5833 36.0833C27.9722 33.4721 26.6667 30.3333 26.6667 26.6666C26.6667 22.9999 27.9722 19.861 30.5833 17.2499C33.1944 14.6388 36.3333 13.3333 40 13.3333C43.6667 13.3333 46.8056 14.6388 49.4167 17.2499C52.0278 19.861 53.3333 22.9999 53.3333 26.6666C53.3333 30.3333 52.0278 33.4721 49.4167 36.0833C46.8056 38.6944 43.6667 39.9999 40 39.9999ZM13.3333 66.6666V57.3333C13.3333 55.4444 13.82 53.7077 14.7933 52.1233C15.7667 50.5388 17.0578 49.331 18.6667 48.4999C22.1111 46.7777 25.6111 45.4855 29.1667 44.6233C32.7222 43.761 36.3333 43.331 40 43.3333C43.6667 43.3333 47.2778 43.7644 50.8333 44.6266C54.3889 45.4888 57.8889 46.7799 61.3333 48.4999C62.9444 49.3333 64.2367 50.5421 65.21 52.1266C66.1833 53.711 66.6689 55.4466 66.6667 57.3333V66.6666H13.3333Z" fill="#9DA9BD"/>
</svg>
