<svg width="17" height="17" viewBox="0 0 17 17" fill="none" xmlns="http://www.w3.org/2000/svg">
<g clip-path="url(#clip0_32_22)">
<path fill-rule="evenodd" clip-rule="evenodd" d="M2.00282 0.54291C2.18874 0.35728 2.41197 0.213279 2.65775 0.12045C2.90352 0.027621 3.16621 -0.0119157 3.42842 0.00445978C3.69063 0.0208353 3.94637 0.092749 4.17868 0.215435C4.41099 0.338122 4.61458 0.508779 4.77595 0.716098L6.68314 3.16622C7.0327 3.61566 7.15595 4.2011 7.01782 4.7536L6.43664 7.08047C6.40659 7.20099 6.40821 7.32723 6.44135 7.44694C6.47449 7.56665 6.53801 7.67575 6.62576 7.76366L9.23632 10.3742C9.32434 10.4621 9.43362 10.5258 9.55354 10.5589C9.67345 10.5921 9.7999 10.5936 9.92057 10.5633L12.2464 9.98216C12.519 9.91399 12.8036 9.90869 13.0786 9.96668C13.3536 10.0247 13.6118 10.1444 13.8338 10.3168L16.2839 12.223C17.1647 12.9083 17.2455 14.2098 16.4571 14.9972L15.3584 16.0958C14.5722 16.882 13.3971 17.2273 12.3016 16.8417C9.49789 15.8552 6.95224 14.25 4.85351 12.1454C2.74901 10.047 1.14391 7.50171 0.157262 4.69835C-0.227363 3.60397 0.11795 2.42779 0.9042 1.64154L2.00282 0.54291Z" fill="#0F2339"/>
</g>
<defs>
<clipPath id="clip0_32_22">
<rect width="17" height="17" fill="white"/>
</clipPath>
</defs>
</svg>
